<svg aria-hidden="true" style="position: absolute; width: 0; height: 0; overflow: hidden;" version="1.1" xmlns="http://www.w3.org/2000/svg" xmlns:xlink="http://www.w3.org/1999/xlink">
<defs>
<symbol id="icon-instagram" viewBox="0 0 32 32">
<path fill="currentColor" d="M22 28h-12c-3.308 0-6-2.692-6-6v-12c0-3.308 2.692-6 6-6h12c3.308 0 6 2.692 6 6v12c0 3.308-2.692 6-6 6zM10 6c-2.206 0-4 1.794-4 4v12c0 2.206 1.794 4 4 4h12c2.206 0 4-1.794 4-4v-12c0-2.206-1.794-4-4-4h-12z"></path>
<path fill="currentColor" d="M16.001 21.8c-3.198 0-5.8-2.602-5.8-5.8s2.602-5.8 5.8-5.8c3.198 0 5.8 2.602 5.8 5.8s-2.602 5.8-5.8 5.8zM16.001 12.108c-2.146 0-3.891 1.746-3.891 3.891s1.746 3.891 3.891 3.891c2.146 0 3.891-1.746 3.891-3.891s-1.746-3.891-3.891-3.891z"></path>
<path fill="currentColor" d="M22.601 10.8c0.773 0 1.4-0.627 1.4-1.4s-0.627-1.4-1.4-1.4c-0.773 0-1.4 0.627-1.4 1.4s0.627 1.4 1.4 1.4z"></path>
</symbol>
<symbol id="icon-google" viewBox="0 0 32 32">
<path fill="currentColor" d="M16 28c-6.617 0-12-5.383-12-12s5.383-12 12-12c2.793 0 5.331 0.935 7.543 2.779 0.202 0.168 0.326 0.405 0.35 0.667s-0.056 0.517-0.224 0.719c-0.187 0.225-0.463 0.354-0.757 0.354-0.23 0-0.453-0.081-0.63-0.228-1.849-1.541-3.962-2.323-6.282-2.323-5.531 0-10.031 4.5-10.031 10.031s4.5 10.031 10.031 10.031c5.115 0 9.486-3.968 9.984-9.047h-7.762c-0.543 0-0.984-0.442-0.984-0.984s0.442-0.984 0.984-0.984h8.794c0.543 0 0.984 0.442 0.984 0.984 0 6.617-5.383 12-12 12z"></path>
</symbol>
<symbol id="icon-telegram" viewBox="0 0 32 32">
<path fill="currentColor" d="M27.228 4.004c-0.343 0.016-0.666 0.116-0.952 0.229h-0.004c-0.291 0.116-1.674 0.702-3.774 1.589-2.1 0.891-4.826 2.047-7.531 3.195-5.403 2.292-10.715 4.547-10.715 4.547l0.064-0.024c0 0-0.367 0.12-0.749 0.385-0.195 0.128-0.41 0.305-0.598 0.582s-0.339 0.702-0.283 1.14c0.092 0.743 0.57 1.188 0.913 1.433 0.347 0.249 0.677 0.365 0.677 0.365h0.008l4.981 1.69c0.223 0.722 1.518 5.009 1.829 5.996 0.183 0.59 0.363 0.959 0.586 1.24 0.108 0.145 0.235 0.265 0.386 0.361 0.060 0.036 0.123 0.064 0.187 0.088 0.020 0.012 0.040 0.016 0.064 0.020l-0.052-0.012c0.016 0.004 0.028 0.016 0.040 0.020 0.040 0.012 0.068 0.016 0.12 0.024 0.789 0.241 1.423-0.253 1.423-0.253l0.036-0.028 2.254-2.067c0.397-0.365 0.997-0.39 1.424-0.060l4.192 3.239 0.112 0.048c1.028 0.453 2.068 0.201 2.618-0.245 0.554-0.45 0.769-1.023 0.769-1.023l0.036-0.092 3.809-19.654c0.108-0.486 0.135-0.939 0.016-1.381s-0.426-0.855-0.797-1.076c-0.375-0.225-0.745-0.293-1.088-0.277zM27.124 6.111c-0.004 0.064 0.008 0.056-0.020 0.181v0.012l-3.774 19.449c-0.016 0.028-0.044 0.088-0.12 0.149-0.080 0.064-0.143 0.104-0.474-0.028l-4.499-3.474c-0.885-0.684-2.13-0.63-2.954 0.127l-2.217 2.035 0.765-4.921 6.252-5.997c0.617-0.591-0.123-1.579-0.857-1.144-3.73 2.214-8.308 5.046-8.308 5.046l-0.004-0.020-5.953-2.023c-0.004 0-0.012-0.004-0.016-0.004 0.004 0 0.032-0.012 0.032-0.012l0.032-0.016 0.032-0.012c0 0 5.316-2.256 10.719-4.547 2.706-1.148 5.431-2.304 7.527-3.195 2.096-0.887 3.646-1.537 3.734-1.573 0.084-0.032 0.044-0.032 0.104-0.032z"></path>
</symbol>
<symbol id="icon-facebook" viewBox="0 0 32 32">
<path fill="currentColor" d="M20.224 12h2.175c0.552 0 1-0.448 1-1s-0.448-1-1-1h-2.175c-2.33 0-4.225 1.895-4.225 4.225v1.775h-1.4c-0.552 0-1 0.448-1 1s0.448 1 1 1h1.4v8.4c0 0.552 0.448 1 1 1s1-0.448 1-1v-8.4h4c0.552 0 1-0.448 1-1s-0.448-1-1-1h-4v-1.775c0-1.227 0.998-2.225 2.225-2.225z"></path>
<path fill="currentColor" d="M22 28h-12c-3.308 0-6-2.692-6-6v-12c0-3.308 2.692-6 6-6h12c3.308 0 6 2.692 6 6v12c0 3.308-2.692 6-6 6zM10 6c-2.206 0-4 1.794-4 4v12c0 2.206 1.794 4 4 4h12c2.206 0 4-1.794 4-4v-12c0-2.206-1.794-4-4-4h-12z"></path>
</symbol>
<symbol id="icon-person" viewBox="0 0 32 32">
<path fill="none" stroke="currentColor" stroke-linejoin="miter" stroke-linecap="butt" stroke-miterlimit="4" stroke-width="0.8889" d="M31.556 16c0 8.591-6.964 15.556-15.556 15.556s-15.556-6.964-15.556-15.556c0-8.591 6.964-15.556 15.556-15.556s15.556 6.964 15.556 15.556z"></path>
<path fill="currentColor" d="M16.457 8.229c0.97 0 1.9 0.385 2.586 1.071s1.071 1.616 1.071 2.586-0.385 1.9-1.071 2.586c-0.686 0.686-1.616 1.071-2.586 1.071s-1.9-0.385-2.586-1.071c-0.686-0.686-1.071-1.616-1.071-2.586s0.385-1.9 1.071-2.586c0.686-0.686 1.616-1.071 2.586-1.071zM16.457 17.372c4.041 0 7.314 1.637 7.314 3.657v1.829h-14.629v-1.829c0-2.021 3.273-3.657 7.314-3.657z"></path>
</symbol>
<symbol id="icon-basket" viewBox="0 0 32 32">
<path fill="none" stroke="currentColor" stroke-linejoin="miter" stroke-linecap="round" stroke-miterlimit="4" stroke-width="0.8889" d="M14 20.667l-1.333-4.667"></path>
<path fill="none" stroke="currentColor" stroke-linejoin="miter" stroke-linecap="round" stroke-miterlimit="4" stroke-width="0.8889" d="M11.333 6l-2.667 4M20.667 6l2.667 4"></path>
<path fill="none" stroke="currentColor" stroke-linejoin="miter" stroke-linecap="round" stroke-miterlimit="4" stroke-width="0.8889" d="M18 20.667l1.333-4.667"></path>
<path fill="none" stroke="currentColor" stroke-linejoin="miter" stroke-linecap="round" stroke-miterlimit="4" stroke-width="0.8889" d="M6 12.667v0c0.779 0 1.454 0.541 1.623 1.302l1.759 7.914c0.297 1.335 0.445 2.002 0.932 2.393s1.171 0.391 2.538 0.391h6.296c1.367 0 2.051 0 2.538-0.391s0.636-1.058 0.932-2.393l1.759-7.914c0.169-0.761 0.844-1.302 1.623-1.302v0"></path>
<path fill="none" stroke="currentColor" stroke-linejoin="miter" stroke-linecap="round" stroke-miterlimit="4" stroke-width="0.8889" d="M26 12.667h-20c-0.736 0-1.333-0.597-1.333-1.333s0.597-1.333 1.333-1.333h20c0.736 0 1.333 0.597 1.333 1.333s-0.597 1.333-1.333 1.333z"></path>
</symbol>
<symbol id="icon-favorite" viewBox="0 0 32 32">
<path fill="none" stroke="currentColor" stroke-linejoin="miter" stroke-linecap="butt" stroke-miterlimit="4" stroke-width="1.3333" d="M5.934 18.544l9.27 8.708c0.319 0.3 0.479 0.45 0.667 0.487 0.085 0.017 0.172 0.017 0.257 0 0.188-0.037 0.348-0.187 0.667-0.487l9.27-8.708c2.608-2.45 2.925-6.482 0.731-9.309l-0.412-0.532c-2.624-3.382-7.892-2.815-9.736 1.048-0.26 0.546-1.037 0.546-1.298 0-1.844-3.864-7.111-4.431-9.736-1.048l-0.412 0.532c-2.194 2.827-1.877 6.859 0.731 9.309z"></path>
</symbol>
<symbol id="icon-bell" viewBox="0 0 32 32">
<path fill="none" stroke="currentColor" stroke-linejoin="miter" stroke-linecap="butt" stroke-miterlimit="4" stroke-width="1.3333" d="M8.597 11.959c0.419-3.772 3.607-6.626 7.403-6.626v0c3.795 0 6.984 2.854 7.403 6.626l0.336 3.022c0.004 0.039 0.006 0.058 0.009 0.077 0.172 1.498 0.66 2.943 1.431 4.239 0.010 0.017 0.020 0.033 0.040 0.066l0.771 1.284c0.699 1.166 1.049 1.749 0.974 2.227-0.050 0.318-0.214 0.608-0.461 0.815-0.371 0.311-1.051 0.311-2.41 0.311h-16.181c-1.359 0-2.039 0-2.411-0.311-0.247-0.207-0.411-0.496-0.461-0.815-0.075-0.479 0.274-1.061 0.974-2.227l0.771-1.284c0.020-0.033 0.030-0.050 0.040-0.066 0.771-1.296 1.259-2.741 1.431-4.239 0.002-0.019 0.004-0.038 0.009-0.077l0.336-3.022z"></path>
<path fill="none" stroke="currentColor" stroke-linejoin="miter" stroke-linecap="round" stroke-miterlimit="4" stroke-width="1.3333" d="M12.136 24.541c0.228 0.992 0.73 1.869 1.429 2.494s1.554 0.964 2.435 0.964 1.736-0.339 2.435-0.964c0.699-0.625 1.201-1.502 1.429-2.494"></path>
</symbol>
<symbol id="icon-map" viewBox="0 0 32 32">
<path fill="none" stroke="currentColor" stroke-linejoin="miter" stroke-linecap="round" stroke-miterlimit="4" stroke-width="1.3333" d="M3.333 7.6c0-1.493 0-2.24 0.291-2.811 0.256-0.502 0.664-0.91 1.165-1.165 0.57-0.291 1.317-0.291 2.811-0.291h16.8c1.494 0 2.24 0 2.811 0.291 0.502 0.256 0.91 0.664 1.165 1.165 0.291 0.57 0.291 1.317 0.291 2.811v16.8c0 1.494 0 2.24-0.291 2.811-0.256 0.502-0.664 0.91-1.165 1.165-0.57 0.291-1.317 0.291-2.811 0.291h-16.8c-1.493 0-2.24 0-2.811-0.291-0.502-0.256-0.91-0.664-1.165-1.165-0.291-0.57-0.291-1.317-0.291-2.811v-16.8z"></path>
<path fill="none" stroke="currentColor" stroke-linejoin="miter" stroke-linecap="butt" stroke-miterlimit="4" stroke-width="1.3333" d="M16.667 20.039c0 2.878-2.853 4.9-4.098 5.645-0.353 0.211-0.786 0.211-1.138 0-1.245-0.745-4.098-2.767-4.098-5.645 0-2.824 2.261-4.706 4.667-4.706 2.489 0 4.667 1.882 4.667 4.706z"></path>
<path fill="none" stroke="currentColor" stroke-linejoin="miter" stroke-linecap="butt" stroke-miterlimit="4" stroke-width="1.3333" d="M24.667 28.667l-8-20"></path>
<path fill="none" stroke="currentColor" stroke-linejoin="miter" stroke-linecap="butt" stroke-miterlimit="4" stroke-width="1.3333" d="M28.667 6l-25.333 5.333"></path>
<path fill="currentColor" d="M13.333 20c0 0.736-0.597 1.333-1.333 1.333s-1.333-0.597-1.333-1.333c0-0.736 0.597-1.333 1.333-1.333s1.333 0.597 1.333 1.333z"></path>
</symbol>
</defs>
</svg>