<svg width="60" height="60" viewBox="0 0 60 60" fill="none" xmlns="http://www.w3.org/2000/svg">
<g clip-path="url(#clip0_263_1022)">
<path d="M30.9002 59.9769C14.3631 60.4654 0.558691 47.4413 0.0588759 30.879C-0.441032 14.3169 12.5529 0.481496 29.0891 -0.0312398C45.6426 -0.544532 59.4741 12.4859 59.9744 29.0652C60.4748 45.6446 47.4543 59.4879 30.9002 59.9769ZM32.6892 1.85918C32.6892 3.58721 32.5724 4.97742 31.4126 6.35222C31.565 6.90743 31.7077 7.45874 31.7782 8.03185C31.9579 9.48984 31.8521 11.1118 31.853 12.5864C31.8449 14.5305 31.8578 16.4746 31.8917 18.4184C35.1358 17.9945 37.8919 16.84 40.3847 14.7121C42.8935 12.4215 44.6595 9.72984 45.4153 6.3856C44.9361 6.05018 44.4173 5.7652 43.9111 5.47244C40.4718 3.47741 36.645 2.24524 32.6892 1.85918ZM26.8196 1.92149C23.382 2.28205 19.9592 3.44227 16.9129 5.05847C16.0729 5.50406 15.279 6.02208 14.4569 6.498C15.539 10.6674 18.1029 14.1888 21.8282 16.3828C22.3469 16.6858 22.8822 16.9592 23.4316 17.2019C24.6057 17.7215 25.7677 18.0832 27.0311 18.3196C27.0566 16.6782 27.0154 15.0348 27.0604 13.3941C26.5779 12.6457 26.0642 11.9038 25.6416 11.1197C24.1202 11.1186 22.5501 11.199 21.0351 11.0827C20.4821 10.0797 19.8286 9.07132 19.3513 8.03454C20.3634 7.21216 21.4902 6.50681 22.552 5.74814C23.2023 5.28354 24.6061 4.1198 25.267 3.85513C25.7332 3.66845 26.387 3.66548 26.8808 3.70527C26.8912 3.40907 27.0001 2.10344 26.8732 1.92168L26.8196 1.92149ZM30.724 2.59355C30.043 3.19939 29.3931 3.82935 28.746 4.47098C28.3765 4.83748 28.014 5.24403 27.6148 5.57676C27.1519 5.49006 26.6792 5.39296 26.207 5.38517C25.3542 5.81408 24.5621 6.52016 23.7842 7.07992C23.083 7.58449 22.3496 8.04242 21.6438 8.53986C21.7812 8.80332 21.9187 9.06455 22.072 9.31921L26.5674 9.31689C27.2796 10.5566 28.0988 11.7356 28.8419 12.9572C28.7874 17.2023 28.8216 21.4537 28.8129 25.6995C28.8084 26.7745 28.7852 27.8542 28.8085 28.9288C29.4412 28.3945 30.0311 27.8126 30.6551 27.2684C31.5463 26.491 32.4964 25.7367 33.3173 24.8849C32.1963 23.5613 30.5502 21.0897 30.1165 19.4288C29.9295 18.7129 30.0553 17.6246 30.0584 16.8668L30.0711 11.3835C30.0663 10.3704 30.1147 9.3206 29.9729 8.3172C29.8596 7.5154 29.6288 6.74644 29.3101 6.00353C30.2273 5.04826 30.7809 4.25157 30.7771 2.87435C30.7768 2.77615 30.78 2.67627 30.724 2.59355ZM6.24119 14.958C4.15119 18.2144 2.75369 21.8674 2.1361 25.6888C1.94878 26.7924 1.80045 27.9198 1.79619 29.041C6.16638 29.0975 10.5425 29.0318 14.9135 29.0395L19.3072 29.041C19.3222 25.1944 17.5917 21.6827 14.9221 18.994C12.6601 16.7157 9.4198 15.2793 6.24119 14.958ZM53.941 14.9995C49.603 15.5145 46.0555 17.2921 43.3236 20.7609C41.7296 22.785 40.718 25.2163 40.2505 27.7429C41.3125 28.0543 42.3997 28.4854 43.3396 29.0712L44.6406 29.0653L58.2081 29.0626C57.9755 24.5624 56.888 20.3057 54.7213 16.3412C54.4836 15.9062 54.2706 15.4584 54.0073 15.0379L53.941 14.9995ZM34.8527 25.9258C33.7508 26.9918 32.4469 27.89 31.4273 29.0294C33.2267 29.0203 35.0288 29.0386 36.8277 29.0091C37.8936 28.9964 38.9596 28.9911 40.0256 28.9934C40.079 28.5837 40.1253 28.1733 40.1646 27.7621C38.3729 27.2196 36.6518 26.4523 34.8527 25.9258ZM4.68767 30.8113L1.85415 30.8236C2.00406 34.8602 2.8861 38.6179 4.65452 42.2538C5.0898 43.1488 5.54804 44.0613 6.10036 44.8902C9.54545 44.6754 12.6758 43.265 15.3417 41.1071C16.1979 40.414 16.9917 39.6393 17.8055 38.8972C19.4757 37.3349 21.1564 35.7839 22.8471 34.2441C23.6557 33.5255 24.4577 32.7997 25.253 32.0665C25.7029 31.6591 26.1905 31.2626 26.6063 30.8213C23.9579 30.7268 21.1432 30.82 18.4762 30.8239L4.68767 30.8113ZM30.2981 30.8104L29.4471 30.8326C29.4165 33.5523 29.4122 36.2724 29.4344 38.9922L29.4346 46.434C29.4442 50.3684 29.3645 54.3077 29.4023 58.2411C29.8917 58.236 30.3896 58.2507 30.8775 58.2176C30.9027 53.588 30.9044 48.9583 30.8827 44.3287C31.7591 43.0284 32.907 41.8501 33.903 40.6372L36.7716 37.1506C37.4862 36.2761 38.1898 35.3797 38.9404 34.5364C39.3771 35.0778 39.8235 35.6113 40.2792 36.1366C41.8106 38.0165 43.3565 39.8845 44.9167 41.7404C45.7329 42.7116 46.527 43.7126 47.4057 44.628C47.3473 47.0629 47.4093 49.5018 47.3923 51.9375C47.9157 51.6258 48.371 51.2514 48.8342 50.8577C48.7767 48.2517 48.8255 45.6432 48.8313 43.0368L48.8032 35.081C48.1577 34.3967 47.5163 33.7039 46.8461 33.0439C46.0875 32.2969 45.2929 31.5778 44.5715 30.7947C42.1265 30.7774 39.6811 30.8245 37.2359 30.8242C34.9257 30.8241 32.6071 30.7744 30.2981 30.8104ZM27.103 43.6509C23.2289 44.0078 19.6078 45.807 17.1057 48.8196C15.9784 50.1769 15.0973 51.7415 14.4343 53.3734C15.5832 54.0745 16.746 54.7523 17.9221 55.4063C21.0288 56.9952 24.2366 57.844 27.6992 58.202L27.7104 43.6227C27.5122 43.6307 27.2985 43.6224 27.103 43.6509ZM50.5372 44.5369L50.5455 49.1629C50.9895 48.6618 51.441 48.1666 51.8451 47.6321C52.3996 46.8936 52.9536 46.1582 53.4122 45.3544C52.5213 44.9707 51.5008 44.6598 50.5372 44.5369ZM45.692 45.4483C42.6589 47.0325 40.4505 49.9079 39.4342 53.1592C39.0962 54.2405 38.7767 55.5061 38.7803 56.6407L38.8271 56.7063L38.8701 56.7116C41.3761 55.766 43.498 54.832 45.7077 53.2947C45.7584 52.4936 45.7908 45.7287 45.692 45.4483ZM32.6455 46.6681L32.6394 58.0871C34.037 57.948 35.3974 57.6728 36.7597 57.332L37.5094 57.131C37.4574 56.4837 37.42 55.8284 37.3171 55.1867C36.9025 52.4771 35.7044 49.9486 33.8709 47.9134C33.5167 47.5234 33.1658 47.0655 32.7534 46.7381C32.7056 46.7001 32.6922 46.6945 32.6455 46.6681Z" fill="#4E2F1B"/>
<path d="M31.4141 6.35193C32.5739 4.97713 32.6907 3.58692 32.6906 1.85889C36.6465 2.24495 40.4733 3.47712 43.9126 5.47215C44.4188 5.76491 44.9376 6.04989 45.4167 6.38532C44.661 9.72955 42.895 12.4212 40.3862 14.7118C37.8934 16.8397 35.1373 17.9942 31.8931 18.4181C31.8592 16.4743 31.8464 14.5302 31.8545 12.5861C31.8536 11.1115 31.9593 9.48955 31.7797 8.03156C31.7092 7.45846 31.5665 6.90714 31.4141 6.35193Z" fill="#FBFBF1"/>
<path d="M14.457 6.49789C15.2791 6.02197 16.073 5.50395 16.913 5.05836C19.9593 3.44216 23.3821 2.28194 26.8197 1.92139L26.8733 1.92157C27.0002 2.10333 26.8913 3.40896 26.8809 3.70516C26.3871 3.66537 25.7333 3.66834 25.2671 3.85502C24.6062 4.11969 23.2024 5.28343 22.5521 5.74803C21.4903 6.5067 20.3635 7.21205 19.3514 8.03443C19.8287 9.07122 20.4822 10.0796 21.0352 11.0826C22.5502 11.1989 24.1203 11.1185 25.6417 11.1196C26.0643 11.9036 26.5781 12.6456 27.0605 13.394C27.0155 15.0347 27.0567 16.6781 27.0312 18.3195C25.7678 18.0831 24.6058 17.7214 23.4317 17.2018C22.8823 16.9591 22.347 16.6857 21.8283 16.3827C18.103 14.1887 15.5391 10.6673 14.457 6.49789Z" fill="#FBFBF1"/>
<path d="M27.6155 5.57647C28.0147 5.24374 28.3772 4.83719 28.7468 4.4707C29.3939 3.82906 30.0438 3.1991 30.7247 2.59326C30.7807 2.67598 30.7776 2.77586 30.7779 2.87407C30.7817 4.25128 30.228 5.04797 29.3108 6.00324C29.6295 6.74615 29.8604 7.51512 29.9737 8.31691C30.1155 9.32031 30.067 10.3701 30.0718 11.3832L30.0592 16.8665C30.056 17.6243 29.9303 18.7126 30.1172 19.4285C30.5509 21.0894 32.197 23.561 33.318 24.8846C32.4971 25.7364 31.547 26.4907 30.6558 27.2681C30.0318 27.8124 29.4419 28.3942 28.8093 28.9285C28.7859 27.8539 28.8092 26.7742 28.8136 25.6992C28.8223 21.4534 28.7881 17.202 28.8427 12.9569C28.0995 11.7353 27.2804 10.5563 26.5681 9.3166L22.0728 9.31892C21.9194 9.06426 21.7819 8.80303 21.6445 8.53957C22.3504 8.04213 23.0837 7.5842 23.7849 7.07963C24.5629 6.51988 25.355 5.81379 26.2078 5.38488C26.6799 5.39267 27.1527 5.48977 27.6155 5.57647Z" fill="#FBFBF1"/>
<path d="M1.79688 29.041C1.80113 27.9198 1.94947 26.7924 2.13678 25.6888C2.75438 21.8674 4.15188 18.2144 6.24188 14.958C9.42049 15.2793 12.6608 16.7157 14.9228 18.9941C17.5923 21.6827 19.3229 25.1945 19.3079 29.041L14.9142 29.0396C10.5432 29.0319 6.16706 29.0975 1.79688 29.041Z" fill="#EBA042"/>
<path d="M40.252 27.7429C40.7195 25.2163 41.7311 22.785 43.3251 20.7609C46.057 17.292 49.6044 15.5145 53.9425 14.9995L54.0088 15.0379C54.2721 15.4584 54.4851 15.9062 54.7228 16.3411C56.8895 20.3057 57.977 24.5623 58.2096 29.0626L44.6421 29.0653L43.3411 29.0711C42.4012 28.4853 41.314 28.0543 40.252 27.7429Z" fill="#FBFBF1"/>
<path d="M31.4277 29.0294C32.4474 27.8899 33.7512 26.9917 34.8531 25.9258C36.6523 26.4522 38.3733 27.2195 40.165 27.762C40.1257 28.1732 40.0794 28.5837 40.0261 28.9933C38.96 28.9911 37.894 28.9964 36.8281 29.0091C35.0292 29.0385 33.2271 29.0203 31.4277 29.0294Z" fill="#FBFBF1"/>
<path d="M1.85547 30.8233L4.68899 30.811L18.4775 30.8236C21.1445 30.8197 23.9592 30.7265 26.6076 30.821C26.1919 31.2623 25.7042 31.6589 25.2544 32.0663C24.459 32.7994 23.657 33.5253 22.8484 34.2438C21.1577 35.7837 19.477 37.3347 17.8069 38.8969C16.9931 39.6391 16.1992 40.4138 15.343 41.1069C12.6771 43.2647 9.54676 44.6752 6.10167 44.8899C5.54936 44.0611 5.09112 43.1485 4.65584 42.2536C2.88741 38.6177 2.00538 34.8599 1.85547 30.8233Z" fill="#9ED1CD"/>
<path d="M29.4476 30.8327L30.2987 30.8106C32.6076 30.7746 34.9262 30.8242 37.2364 30.8244C39.6816 30.8247 42.127 30.7776 44.572 30.7948C45.2935 31.578 46.088 32.297 46.8466 33.044C47.5168 33.704 48.1582 34.3969 48.8037 35.0812L48.8318 43.0369C48.8261 45.6434 48.7773 48.2519 48.8347 50.8578C48.3715 51.2516 47.9162 51.6259 47.3928 51.9376C47.4099 49.5019 47.3478 47.0631 47.4062 44.6282C46.5275 43.7128 45.7334 42.7117 44.9173 41.7406C43.357 39.8847 41.8111 38.0167 40.2798 36.1368C39.824 35.6114 39.3776 35.078 38.9409 34.5366C38.1903 35.3799 37.4867 36.2762 36.7721 37.1507L33.9035 40.6374C32.9075 41.8503 31.7596 43.0285 30.8832 44.3289C30.9049 48.9585 30.9032 53.5881 30.878 58.2178C30.3901 58.2509 29.8922 58.2361 29.4028 58.2412C29.365 54.3079 29.4447 50.3685 29.4351 46.4341L29.4349 38.9924C29.4127 36.2725 29.417 33.5525 29.4476 30.8327Z" fill="#FBFBF1"/>
<path d="M14.4355 53.3733C15.0985 51.7414 15.9796 50.1767 17.1069 48.8195C19.609 45.8069 23.2301 44.0077 27.1043 43.6508C27.2997 43.6223 27.5134 43.6305 27.7117 43.6226L27.7004 58.2019C24.2378 57.8439 21.03 56.995 17.9233 55.4062C16.7472 54.7521 15.5844 54.0743 14.4355 53.3733Z" fill="#FBFBF1"/>
<path d="M50.5454 49.1626L50.5371 44.5366C51.5007 44.6595 52.5212 44.9704 53.4121 45.3542C52.9535 46.1579 52.3995 46.8933 51.845 47.6319C51.4409 48.1663 50.9894 48.6615 50.5454 49.1626Z" fill="#FBFBF1"/>
<path d="M38.8711 56.7116L38.8281 56.7063L38.7813 56.6407C38.7778 55.5061 39.0972 54.2404 39.4352 53.1591C40.4515 49.9078 42.6599 47.0324 45.693 45.4482C45.7918 45.7287 45.7594 52.4936 45.7087 53.2946C43.499 54.832 41.3771 55.7659 38.8711 56.7116Z" fill="#FBFBF1"/>
<path d="M32.6406 58.087L32.6466 46.668C32.6934 46.6943 32.7068 46.7 32.7546 46.7379C33.167 47.0653 33.5178 47.5233 33.8721 47.9132C35.7056 49.9484 36.9037 52.4769 37.3183 55.1866C37.4212 55.8282 37.4586 56.4835 37.5106 57.1309L36.7609 57.3318C35.3986 57.6726 34.0382 57.9479 32.6406 58.087Z" fill="#FBFBF1"/>
</g>
<defs>
<clipPath id="clip0_263_1022">
<rect width="60" height="60" fill="white"/>
</clipPath>
</defs>
</svg>
